<svg width="124" height="124" viewBox="0 0 124 124" fill="none" xmlns="http://www.w3.org/2000/svg">
<g clip-path="url(#clip0_9_91)">
<path d="M62 124C96.2417 124 124 96.2417 124 62C124 27.7583 96.2417 0 62 0C27.7583 0 0 27.7583 0 62C0 96.2417 27.7583 124 62 124Z" fill="#E31E24"/>
<path d="M1.42899 54.4551L4.83408 54.7375L4.75416 55.7009L3.42633 55.5905L3.31674 56.9038L4.64555 57.0142L4.56563 57.9776L1.15973 57.695L1.24046 56.7318L2.51949 56.8378L2.62827 55.5247L1.34923 55.4184L1.42899 54.4551Z" fill="#FEFEFE"/>
<path d="M5.99429 45.9692L5.59647 47.3582L6.16077 47.7993L5.88892 48.7468L3.01992 46.3557L3.28189 45.4408L6.98396 44.9272L6.70659 45.8935L5.99429 45.9692ZM5.23157 46.0451L4.05936 46.1659L4.98905 46.8894L5.23157 46.0451Z" fill="#FEFEFE"/>
<path d="M10.3957 36.4379L8.75175 35.6781L9.71727 37.0975L9.53571 37.4869L7.86372 37.6776L9.47038 38.4257L9.09575 39.2311L5.99786 37.7886L6.33342 37.0668L8.6279 36.8111L7.33509 34.9161L7.67065 34.1952L10.7728 35.6287L10.3957 36.4379Z" fill="#FEFEFE"/>
<path d="M18.6245 21.4139C18.8059 21.3041 18.9824 21.2532 19.1549 21.2626C19.3275 21.2711 19.4905 21.3414 19.6432 21.4737C19.8724 21.6708 19.9757 21.9156 19.9536 22.2079C19.9317 22.501 19.7793 22.8108 19.4971 23.1389L18.3529 24.4664L15.7647 22.2364L16.8481 20.9791C17.1149 20.6682 17.3814 20.4779 17.6458 20.407C17.9109 20.3364 18.1505 20.3934 18.3649 20.5786C18.4907 20.6872 18.5758 20.8123 18.6201 20.9563C18.6635 21.0996 18.6657 21.2518 18.6245 21.4139ZM17.421 22.407L17.8225 21.9411C18.001 21.7337 18.0056 21.557 17.8349 21.4111C17.6653 21.2643 17.4904 21.2947 17.3125 21.5013L16.911 21.967L17.421 22.407ZM18.9464 22.7161C19.129 22.5041 19.1301 22.3199 18.9506 22.1649C18.7752 22.0142 18.5961 22.0448 18.4137 22.2569L17.917 22.8338L18.4497 23.2931L18.9464 22.7161Z" fill="#FEFEFE"/>
<path d="M26.3862 15.9111L25.2508 16.8048L25.4509 17.4923L24.6766 18.1028L23.7473 14.4849L24.4951 13.8956L27.7979 15.6444L27.0081 16.2663L26.3862 15.9111ZM25.7227 15.5258L24.7016 14.9388L25.0328 16.0695L25.7227 15.5258Z" fill="#FEFEFE"/>
<path d="M34.9222 9.67915L34.5641 9.86849L35.1753 11.0251L34.339 11.4677L33.7268 10.311L33.3687 10.5004L33.3892 11.9697L32.4011 12.4925L32.4223 10.4547L30.8549 9.44442L31.7522 8.96976L32.9772 9.82408L33.3613 9.62063L32.7409 8.44696L33.5772 8.00457L34.1986 9.17807L34.5656 8.98371L34.5612 7.48339L35.4552 7.01117L35.4081 8.87493L37.1042 10.0043L36.1204 10.5247L34.9222 9.67915Z" fill="#FEFEFE"/>
<path d="M44.6609 3.4628L45.7435 6.70399L44.8267 7.01054L44.4048 5.74658L43.1547 6.16369L43.5767 7.4283L42.66 7.73387L41.5774 4.49332L42.4941 4.1871L42.9012 5.4047L44.1512 4.98743L43.7442 3.76918L44.6609 3.4628Z" fill="#FEFEFE"/>
<path d="M53.4057 2.69572C53.8211 2.63785 54.1546 2.68664 54.4055 2.84081C54.6568 2.99513 54.8079 3.25434 54.858 3.6186C54.9125 4.00896 54.8278 4.32394 54.6043 4.56499C54.3816 4.80621 54.0457 4.95794 53.5978 5.01922L51.9974 5.2405L51.5299 1.85535L52.4731 1.7255L52.6219 2.80401L53.4057 2.69572ZM53.44 4.34144C53.602 4.31907 53.7236 4.2578 53.8066 4.15777C53.8896 4.05792 53.9204 3.92904 53.8988 3.77033C53.8581 3.47773 53.6624 3.35485 53.3112 3.40397L52.7159 3.48535L52.8457 4.42363L53.44 4.34144ZM54.9296 1.38669L55.8721 1.2562L56.3397 4.64151L55.3964 4.77119L54.9296 1.38669Z" fill="#FEFEFE"/>
<path d="M72.6071 3.58326C72.7943 3.68149 72.9289 3.80745 73.0098 3.96032C73.0906 4.11319 73.1146 4.2881 73.08 4.48766C73.0284 4.78561 72.8716 5.00008 72.6097 5.13155C72.3471 5.26319 72.0027 5.29237 71.5769 5.21812L69.8498 4.92L70.4314 1.55301L72.0666 1.83573C72.4704 1.90511 72.771 2.03561 72.9674 2.22657C73.1641 2.41737 73.2385 2.65243 73.1903 2.93109C73.1621 3.09466 73.0981 3.23245 72.9973 3.34415C72.8973 3.45487 72.7671 3.53511 72.6071 3.58326ZM71.1368 3.06175L71.7426 3.16647C72.012 3.21332 72.1657 3.12579 72.2036 2.90435C72.2423 2.68372 72.1264 2.54949 71.8568 2.5028L71.251 2.39808L71.1368 3.06175ZM71.6561 4.52851C71.9322 4.57601 72.09 4.48296 72.1303 4.2492C72.1697 4.02127 72.0515 3.88397 71.7755 3.83631L71.0255 3.70662L70.9054 4.39963L71.6561 4.52851Z" fill="#FEFEFE"/>
<path d="M81.3867 7.06275L80.0187 6.59896L79.5513 7.1417L78.6166 6.82543L81.1424 4.07266L82.0444 4.37856L82.3806 8.10089L81.428 7.77814L81.3867 7.06275ZM81.3478 6.29695L81.2825 5.12004L80.5149 6.01521L81.3478 6.29695Z" fill="#FEFEFE"/>
<path d="M93.6773 9.85051L91.9834 12.8181L87.9605 10.521L89.6544 7.55344L90.4813 8.0255L89.1674 10.3276L89.9428 10.7705L91.2569 8.46838L92.0838 8.94044L90.7697 11.2425L91.5371 11.6806L92.8512 9.37845L93.6773 9.85051Z" fill="#FEFEFE"/>
<path d="M99.397 13.824L100.138 14.4218L98.8779 15.9833L101.236 15.3079L101.943 15.8777L99.797 18.5368L99.0556 17.9389L100.313 16.3816L97.962 17.0563L97.2511 16.483L99.397 13.824Z" fill="#FEFEFE"/>
<path d="M111.533 31.2051L110.297 31.9916L109.823 31.2457L110.412 30.8711L108.907 28.5071L111.789 26.6727L112.301 27.4756L110.065 28.8991L110.77 30.0064L113.006 28.583L113.517 29.3859L111.281 30.8094L111.533 31.2051Z" fill="#FEFEFE"/>
<path d="M115.713 39.1573L115.034 39.4689L113.891 36.9745L116.998 35.5505L118.115 37.9872L117.435 38.2988L116.717 36.7315L116.194 36.9714L116.827 38.3518L116.169 38.6525L115.537 37.2729L114.969 37.5326L115.713 39.1573Z" fill="#FEFEFE"/>
<path d="M121.289 47.4728L118.002 48.4082L117.742 47.4924L120.291 46.7668L120.022 45.8232L119.482 45.9566C119.008 46.0745 118.615 46.1445 118.304 46.1672C117.992 46.1899 117.735 46.1508 117.531 46.05C117.329 45.949 117.189 45.7634 117.112 45.4948C117.077 45.3693 117.055 45.2228 117.048 45.0559L117.823 44.8909C117.825 44.934 117.833 44.978 117.845 45.0217C117.88 45.144 117.956 45.2237 118.071 45.262C118.187 45.3002 118.336 45.3085 118.517 45.2873C118.699 45.2654 118.931 45.2198 119.212 45.1508L120.535 44.8246L121.289 47.4728Z" fill="#FEFEFE"/>
<path d="M122.598 54.4446L122.675 55.3934L120.675 55.556L122.789 56.7994L122.862 57.7041L119.457 57.981L119.379 57.0322L121.374 56.8704L119.266 55.6311L119.192 54.7215L122.598 54.4446Z" fill="#FEFEFE"/>
<path d="M62 118.596C93.2574 118.596 118.597 93.2573 118.597 61.9998C118.597 30.7424 93.2574 5.40323 62 5.40323C30.7426 5.40323 5.4034 30.7424 5.4034 61.9998C5.4034 93.2573 30.7426 118.596 62 118.596Z" fill="#003780"/>
<path d="M62 70.493C66.6906 70.493 70.493 66.6906 70.493 62C70.493 57.3094 66.6906 53.507 62 53.507C57.3094 53.507 53.507 57.3094 53.507 62C53.507 66.6906 57.3094 70.493 62 70.493Z" fill="#FEFEFE"/>
<path fill-rule="evenodd" clip-rule="evenodd" d="M58.7334 48.0626C58.7337 49.8663 60.1967 51.3292 62.0002 51.3292C63.8041 51.3292 65.267 49.8663 65.267 48.0626L61.9999 9.29935L58.7334 48.0626Z" fill="#FEFEFE"/>
<path fill-rule="evenodd" clip-rule="evenodd" d="M67.579 42.2716C67.0735 43.4937 67.6542 44.8953 68.8762 45.4017C70.0983 45.9078 71.5 45.3272 72.0063 44.1052L81.5258 14.8602L67.579 42.2716Z" fill="#FEFEFE"/>
<path fill-rule="evenodd" clip-rule="evenodd" d="M69.5455 49.8349C68.2702 51.1105 68.2702 53.1795 69.5457 54.455C70.821 55.7303 72.8901 55.7303 74.1654 54.455L99.2648 24.735L69.5455 49.8349Z" fill="#FEFEFE"/>
<path fill-rule="evenodd" clip-rule="evenodd" d="M79.8948 51.9947C78.6735 52.5014 78.0928 53.9033 78.5991 55.1255C79.1052 56.3474 80.507 56.9281 81.7291 56.4218L109.14 42.474L79.8948 51.9947Z" fill="#FEFEFE"/>
<path fill-rule="evenodd" clip-rule="evenodd" d="M75.9374 58.7332C74.1335 58.7335 72.6706 60.1965 72.6706 62.0002C72.6706 63.8038 74.1337 65.267 75.9374 65.267L114.7 61.9998L75.9374 58.7332Z" fill="#FEFEFE"/>
<path fill-rule="evenodd" clip-rule="evenodd" d="M81.7283 67.579C80.5063 67.0733 79.1045 67.6542 78.5983 68.8761C78.092 70.0981 78.6729 71.5 79.8947 72.0061L109.14 81.5258L81.7283 67.579Z" fill="#FEFEFE"/>
<path fill-rule="evenodd" clip-rule="evenodd" d="M74.1649 69.5453C72.8895 68.2702 70.8203 68.2702 69.545 69.5455C68.2695 70.821 68.2695 72.8899 69.545 74.1654L99.2648 99.2648L74.1649 69.5453Z" fill="#FEFEFE"/>
<path fill-rule="evenodd" clip-rule="evenodd" d="M72.0053 79.8948C71.4984 78.6733 70.0965 78.0928 68.8745 78.5989C67.6524 79.1052 67.0717 80.5069 67.578 81.7289L81.5258 109.14L72.0053 79.8948Z" fill="#FEFEFE"/>
<path fill-rule="evenodd" clip-rule="evenodd" d="M65.2667 75.9374C65.2663 74.1335 63.8035 72.6706 61.9997 72.6706C60.1961 72.6706 58.733 74.1337 58.733 75.9374L62 114.7L65.2667 75.9374Z" fill="#FEFEFE"/>
<path fill-rule="evenodd" clip-rule="evenodd" d="M56.4209 81.7283C56.9265 80.5063 56.3457 79.1045 55.1239 78.5981C53.9017 78.092 52.4998 78.6727 51.9937 79.8947L42.474 109.14L56.4209 81.7283Z" fill="#FEFEFE"/>
<path fill-rule="evenodd" clip-rule="evenodd" d="M54.4545 74.1649C55.7298 72.8893 55.7298 70.8203 54.4543 69.5449C53.1789 68.2696 51.1099 68.2696 49.8344 69.5449L24.7352 99.2648L54.4545 74.1649Z" fill="#FEFEFE"/>
<path fill-rule="evenodd" clip-rule="evenodd" d="M44.105 72.0052C45.3265 71.4984 45.907 70.0965 45.4009 68.8744C44.8946 67.6524 43.4931 67.0717 42.2709 67.578L14.8602 81.5258L44.105 72.0052Z" fill="#FEFEFE"/>
<path fill-rule="evenodd" clip-rule="evenodd" d="M48.0626 65.2666C49.8663 65.2663 51.3292 63.8033 51.3292 61.9997C51.3292 60.196 49.8662 58.7328 48.0626 58.7328L9.29935 62L48.0626 65.2666Z" fill="#FEFEFE"/>
<path fill-rule="evenodd" clip-rule="evenodd" d="M42.2716 56.4209C43.4937 56.9265 44.8953 56.3456 45.4017 55.1237C45.9078 53.9017 45.3272 52.4998 44.1052 51.9937L14.8602 42.474L42.2716 56.4209Z" fill="#FEFEFE"/>
<path fill-rule="evenodd" clip-rule="evenodd" d="M49.8349 54.4545C51.1105 55.7297 53.1795 55.7297 54.455 54.4544C55.7305 53.1789 55.7305 51.1099 54.455 49.8344L24.7352 24.735L49.8349 54.4545Z" fill="#FEFEFE"/>
<path fill-rule="evenodd" clip-rule="evenodd" d="M51.9947 44.105C52.5014 45.3265 53.9033 45.907 55.1255 45.4009C56.3476 44.8947 56.9281 43.4929 56.422 42.2709L42.474 14.8602L51.9947 44.105Z" fill="#FEFEFE"/>
<path d="M26.3989 108.293L25.5776 107.646L23.9373 109.73L23.1888 109.141L24.8292 107.057L24.004 106.408L24.4784 105.805L26.873 107.69L26.3989 108.293ZM31.6249 113.451L31.244 113.232L30.5916 114.367L29.7574 113.888L31.4609 110.924L32.2951 111.403L31.6332 112.555L32.0356 112.786L33.4046 112.041L34.2855 112.547L32.5355 113.445L32.5903 115.516L31.6462 114.973L31.6249 113.451ZM50.0131 118.389L49.245 121.72L48.3122 121.505L48.908 118.921L47.6421 118.629L47.0463 121.213L46.1182 121L46.8863 117.668L50.0131 118.389ZM57.9825 122.252L56.541 122.142L56.2228 122.784L55.2391 122.709L57.003 119.415L57.9526 119.487L59.2033 123.011L58.2 122.934L57.9825 122.252ZM57.7542 121.519L57.3987 120.395L56.8774 121.453L57.7542 121.519ZM66.5773 119.447C66.8858 119.423 67.1575 119.454 67.3925 119.539C67.6276 119.624 67.814 119.757 67.9518 119.937C68.0896 120.118 68.1684 120.336 68.1878 120.593C68.2073 120.849 68.1624 121.077 68.0535 121.274C67.9444 121.472 67.7801 121.63 67.5606 121.75C67.3412 121.87 67.0771 121.941 66.7687 121.964L66.1745 122.01L66.2422 122.901L65.2782 122.974L65.0189 119.565L66.5773 119.447ZM66.6525 121.209C66.8506 121.194 66.9967 121.14 67.0907 121.046C67.1849 120.952 67.2259 120.826 67.2137 120.667C67.2017 120.508 67.1421 120.388 67.0346 120.308C66.9274 120.228 66.7747 120.196 66.5766 120.211L66.0409 120.252L66.1167 121.25L66.6525 121.209ZM76.4041 118.618L75.3858 118.853L75.9822 121.437L75.0541 121.651L74.4577 119.067L73.4345 119.303L73.262 118.556L76.2317 117.871L76.4041 118.618ZM84.6305 115.039L85.8872 118.219L84.9878 118.574L84.4976 117.334L83.2712 117.819L83.7613 119.059L82.8621 119.414L81.6054 116.235L82.5046 115.88L82.9768 117.074L84.2032 116.589L83.731 115.395L84.6305 115.039ZM93.65 113.368L94.0221 114.017L91.6415 115.383L89.9396 112.418L92.265 111.083L92.6369 111.731L91.1418 112.589L91.4287 113.089L92.746 112.333L93.1059 112.96L91.7886 113.716L92.0996 114.258L93.65 113.368ZM98.2578 106.802C98.5011 106.611 98.744 106.485 98.9867 106.425C99.2292 106.365 99.4579 106.372 99.6729 106.445C99.8878 106.518 100.075 106.656 100.234 106.858C100.393 107.061 100.482 107.274 100.501 107.499C100.521 107.724 100.472 107.947 100.356 108.169C100.241 108.39 100.061 108.596 99.8178 108.788L99.3491 109.156L99.9014 109.859L99.141 110.456L97.0289 107.768L98.2578 106.802ZM99.301 108.225C99.4573 108.102 99.5484 107.975 99.5743 107.845C99.6006 107.715 99.5641 107.587 99.4655 107.462C99.3671 107.336 99.2511 107.27 99.1172 107.263C98.9836 107.257 98.8387 107.315 98.6824 107.437L98.2599 107.769L98.8785 108.557L99.301 108.225Z" fill="#FEFEFE"/>
</g>
<defs>
<clipPath id="clip0_9_91">
<rect width="124" height="124" fill="white"/>
</clipPath>
</defs>
</svg>
